<svg version="1.0" xmlns="http://www.w3.org/2000/svg"
 width="1600.000000pt" height="469.000000pt" viewBox="0 0 1600.000000 469.000000"
 preserveAspectRatio="xMidYMid meet">

<g transform="translate(0.000000,469.000000) scale(0.100000,-0.100000)"
fill="#000000" stroke="none">
<path d="M0 2345 l0 -2345 8000 0 8000 0 0 2345 0 2345 -8000 0 -8000 0 0
-2345z m2387 1516 c246 -51 491 -182 668 -357 66 -66 97 -109 177 -244 158
-270 168 -304 112 -420 -39 -81 -105 -152 -209 -222 l-80 -54 -31 -92 c-67
-204 -207 -343 -468 -468 -182 -87 -352 -117 -536 -95 -203 25 -440 142 -568
280 -53 57 -135 187 -183 290 -41 89 -46 95 -110 137 -93 62 -139 115 -193
227 -50 103 -53 125 -32 204 39 146 247 429 411 560 161 128 401 236 585 262
41 6 86 13 100 15 52 9 268 -5 357 -23z m12097 4 c78 -23 270 -126 346 -183
109 -83 258 -272 321 -407 62 -131 69 -177 69 -435 0 -233 0 -236 -29 -316
-61 -175 -150 -312 -282 -439 -111 -106 -265 -202 -393 -246 l-84 -29 -1689
-1 -1689 0 -80 29 c-130 48 -296 154 -401 255 -51 49 -107 113 -124 141 -18
28 -50 80 -73 115 -22 35 -55 106 -73 158 l-33 95 0 239 c0 238 0 239 30 332
96 301 379 582 690 688 l85 29 1664 0 1665 0 80 -25z m1088 0 c68 -24 142
-105 164 -181 36 -124 -3 -262 -94 -331 -54 -41 -98 -53 -197 -53 -98 0 -148
21 -210 86 -69 71 -93 185 -64 300 20 79 120 170 214 195 41 11 130 3 187 -16z
m-7254 -430 c192 -40 341 -145 422 -296 47 -88 63 -168 63 -304 0 -236 -73
-388 -241 -498 -143 -94 -253 -121 -482 -121 -150 0 -173 2 -250 26 -222 69
-374 214 -426 408 -24 87 -24 280 -1 368 60 225 249 383 512 428 96 16 302 11
403 -11z m953 -14 c19 -21 156 -192 304 -379 149 -188 273 -341 278 -342 4 0
7 164 7 364 0 323 2 365 16 370 20 8 238 8 258 0 14 -6 16 -68 16 -599 l0
-593 -22 -6 c-33 -9 -186 -7 -237 3 -25 5 -51 17 -58 28 -13 18 -193 246 -338
427 -45 56 -99 126 -122 156 -22 30 -49 65 -59 77 -11 12 -27 31 -36 42 -10
12 -22 21 -28 21 -7 0 -10 -129 -10 -374 l0 -375 -42 -6 c-24 -3 -88 -5 -143
-3 l-100 3 -3 555 c-1 305 0 565 3 576 2 12 13 25 22 29 26 11 225 63 244 64
9 1 32 -16 50 -38z m-5483 6 c15 -8 42 -53 78 -132 31 -66 80 -171 110 -233
30 -63 54 -115 54 -117 0 -1 30 -65 66 -141 36 -77 77 -163 89 -191 35 -77 41
-74 95 47 18 41 51 113 72 160 22 47 50 110 63 140 13 30 66 145 118 255 69
146 100 203 118 212 15 8 70 13 152 13 106 0 127 -2 127 -15 0 -8 -93 -203
-206 -432 -114 -230 -235 -479 -270 -553 -49 -104 -70 -139 -94 -153 -29 -18
-234 -77 -266 -77 -14 0 -44 58 -239 470 -46 96 -131 274 -190 395 -162 333
-167 344 -160 355 9 15 254 13 283 -3z m1540 5 c10 -7 12 -134 10 -603 l-3
-594 -120 -3 c-66 -1 -130 0 -142 3 l-23 5 0 581 c0 381 4 587 10 600 10 17
22 19 133 19 67 0 128 -4 135 -8z m1419 -8 c6 -17 -43 -212 -59 -231 -8 -10
-90 -13 -347 -14 -384 0 -464 -6 -486 -35 -41 -51 -37 -110 11 -155 26 -24 26
-24 322 -30 332 -7 359 -11 452 -76 59 -42 114 -114 130 -171 17 -63 12 -185
-10 -246 -46 -123 -170 -208 -330 -226 -104 -12 -880 -13 -898 -1 -11 7 -11
17 2 57 8 27 23 80 33 119 17 64 21 70 48 76 17 4 206 7 420 8 436 1 426 -1
445 71 14 50 6 80 -28 105 -25 18 -49 21 -305 27 -153 3 -301 11 -329 17 -116
25 -213 98 -264 199 -27 52 -29 66 -29 162 1 121 9 143 83 223 73 77 178 121
312 130 25 2 220 4 433 5 342 2 388 0 394 -14z m487 10 c14 -6 16 -67 16 -595
l0 -589 -26 -10 c-28 -11 -223 -14 -248 -4 -14 6 -16 68 -16 599 0 465 3 594
13 598 18 8 242 8 261 1z m-6337 -536 c5 -7 21 -42 36 -78 42 -99 101 -173
177 -218 63 -37 67 -41 125 -154 104 -201 212 -325 355 -410 169 -101 291
-143 461 -160 214 -21 399 17 599 124 121 64 173 102 249 183 78 84 114 147
151 265 28 91 31 96 77 125 26 17 59 36 73 43 62 32 124 104 175 207 39 78 56
80 95 13 58 -100 81 -197 87 -356 l6 -142 -28 -40 c-39 -57 -199 -208 -277
-262 -208 -145 -477 -277 -653 -322 -391 -99 -753 -82 -1135 52 -221 78 -516
277 -665 449 -91 105 -98 126 -83 257 11 98 39 211 78 312 44 116 71 146 97
112z m-187 -656 c100 -134 372 -354 541 -438 227 -112 430 -167 746 -199 125
-13 162 -13 290 0 533 51 862 212 1258 614 39 39 75 71 80 71 30 0 152 -268
189 -418 14 -53 30 -135 37 -181 l12 -85 -39 -33 c-81 -68 -289 -183 -419
-230 -209 -76 -608 -171 -898 -213 -132 -19 -179 -21 -415 -17 -231 4 -286 8
-412 30 -337 61 -695 153 -865 224 -152 63 -379 197 -393 231 -8 21 15 181 39
272 30 115 133 360 171 408 19 23 43 12 78 -36z m4493 -588 c67 -17 185 -72
232 -108 100 -77 191 -197 238 -316 38 -97 50 -177 45 -288 -14 -256 -161
-478 -394 -595 -154 -77 -357 -88 -537 -27 l-98 33 -67 -16 c-37 -9 -118 -31
-179 -48 -62 -18 -115 -30 -119 -27 -3 4 18 80 47 169 l52 163 -18 45 c-54
140 -66 179 -76 261 -44 345 176 668 516 755 73 19 283 19 358 -1z m1075 -227
c2 -9 -8 -41 -22 -71 -80 -168 -107 -401 -68 -587 11 -53 36 -137 56 -186 42
-105 44 -123 15 -123 -52 0 -108 68 -174 213 -47 102 -66 282 -44 416 20 126
124 330 179 350 34 13 54 9 58 -12z m460 -13 c58 -29 88 -69 98 -131 10 -63
-3 -107 -42 -150 l-35 -38 40 -35 c86 -74 94 -204 19 -295 -43 -52 -96 -75
-187 -82 -139 -10 -229 29 -276 121 -45 90 -27 195 44 255 l40 33 -39 47 c-37
44 -40 52 -40 107 0 84 29 128 114 176 23 13 55 17 122 18 77 0 97 -4 142 -26z
m585 14 c78 -23 127 -95 127 -186 0 -40 -34 -117 -55 -126 -24 -9 -18 -30 16
-55 93 -69 89 -244 -8 -325 -59 -50 -186 -70 -292 -45 -56 13 -116 60 -143
113 -43 83 -20 219 44 255 41 24 42 38 3 76 -83 84 -47 233 70 286 47 22 176
26 238 7z m303 -15 c33 -35 111 -196 130 -265 24 -92 28 -232 9 -333 -19 -101
-36 -146 -101 -256 -45 -78 -80 -105 -121 -97 -23 5 -20 23 22 123 55 129 67
187 72 345 4 131 2 154 -21 242 -13 54 -41 133 -60 177 -20 43 -36 81 -36 85
0 3 18 6 40 6 32 0 47 -6 66 -27z m863 11 c81 -24 136 -80 164 -168 18 -60 22
-92 21 -201 -2 -116 -5 -137 -29 -198 -35 -86 -96 -150 -159 -166 -56 -14
-139 -14 -188 -1 -66 19 -128 87 -128 141 0 28 27 59 51 59 26 0 69 -21 69
-35 0 -18 52 -62 82 -69 39 -9 94 17 116 53 22 37 48 138 38 148 -4 4 -25 -3
-47 -15 -50 -29 -168 -33 -217 -8 -41 21 -98 90 -106 128 -9 46 -7 173 3 200
5 13 26 42 47 66 66 73 174 99 283 66z m896 -14 c88 -43 128 -108 148 -241 14
-102 -2 -258 -36 -331 -26 -58 -72 -110 -119 -134 -40 -21 -162 -29 -215 -15
-23 6 -56 24 -74 38 -88 74 -65 199 29 155 17 -9 32 -20 32 -25 0 -5 16 -24
36 -44 32 -31 40 -34 73 -28 70 12 103 51 120 142 12 60 2 71 -41 46 -43 -26
-132 -35 -181 -18 -57 20 -107 63 -129 113 -28 62 -27 185 1 240 25 48 81 96
136 117 54 20 163 13 220 -15z m608 8 c112 -40 168 -177 117 -284 -22 -44 -89
-120 -150 -168 -85 -69 -142 -127 -136 -141 4 -13 24 -14 108 -11 66 3 122 0
153 -8 49 -12 50 -13 53 -52 5 -68 1 -69 -258 -69 -178 0 -231 3 -243 14 -24
19 -22 97 2 137 17 28 112 117 255 238 82 69 106 138 71 205 -17 34 -32 41
-92 41 -59 0 -94 -25 -127 -95 -30 -60 -59 -76 -102 -56 -21 9 -24 17 -24 62
0 89 60 164 154 196 48 15 163 11 219 -9z m556 6 c29 -8 69 -30 89 -48 33 -31
36 -39 40 -98 4 -64 -6 -101 -44 -159 -17 -26 -16 -26 29 -71 40 -40 46 -53
52 -102 11 -82 -8 -139 -64 -197 -58 -60 -133 -85 -228 -76 -77 8 -130 34
-177 89 -74 86 -70 173 8 173 33 0 41 -5 55 -30 60 -111 97 -142 157 -130 78
14 120 85 102 170 -13 60 -37 75 -137 84 -44 4 -82 9 -84 11 -3 3 -8 19 -11
37 -6 27 -3 34 18 48 14 9 45 19 68 22 63 7 94 21 107 49 27 59 5 115 -53 134
-46 15 -100 -7 -124 -51 -26 -49 -49 -69 -81 -69 -88 0 -63 139 34 188 87 45
156 53 244 26z m638 -12 c105 -54 135 -193 58 -276 -14 -15 -25 -31 -25 -37 0
-5 18 -25 39 -45 69 -61 82 -162 35 -255 -67 -134 -294 -173 -411 -71 -17 15
-43 45 -57 66 -45 67 -28 146 32 146 28 0 72 -35 72 -57 0 -7 11 -31 25 -53
33 -53 90 -70 146 -44 47 21 68 50 75 106 11 91 -41 136 -157 137 -62 1 -79
12 -79 53 0 35 35 59 98 66 63 7 90 26 102 73 17 64 -21 109 -93 109 -50 0
-71 -12 -98 -57 -28 -47 -47 -63 -75 -63 -38 0 -57 28 -50 73 12 71 69 124
161 148 52 14 156 4 202 -19z m1470 9 c23 -11 57 -36 76 -56 52 -55 69 -118
74 -282 5 -124 3 -150 -15 -210 -23 -75 -72 -142 -126 -170 -22 -12 -56 -17
-117 -18 -77 0 -90 3 -127 28 -89 58 -129 147 -139 307 -6 105 14 236 47 300
21 40 62 81 105 103 44 23 168 22 222 -2z m604 9 c57 -16 123 -90 145 -163 27
-87 27 -338 1 -414 -28 -79 -86 -139 -155 -159 -116 -34 -217 -2 -282 88 -51
71 -63 129 -58 307 3 151 4 158 35 223 27 58 38 71 85 97 45 26 63 31 123 31
39 0 86 -5 106 -10z m627 -7 c53 -25 104 -83 127 -144 17 -46 20 -79 20 -229
0 -157 -2 -180 -21 -221 -29 -63 -96 -125 -149 -138 -168 -42 -286 32 -335
211 -8 32 -11 92 -8 190 7 203 41 283 142 329 54 25 174 26 224 2z m-1647 -13
c19 -29 0 -80 -67 -172 -98 -136 -149 -260 -173 -425 -14 -89 -25 -119 -50
-132 -29 -16 -72 -13 -93 6 -59 54 32 348 169 541 24 34 42 66 39 71 -3 5 -70
9 -149 9 -174 0 -189 5 -185 65 2 34 7 42 28 49 14 4 125 6 248 5 183 -2 225
-5 233 -17z m-558 -391 c29 -16 37 -28 37 -61 0 -37 -30 -54 -108 -62 -87 -10
-170 2 -194 26 -24 24 -18 75 9 96 22 16 226 17 256 1z m-2785 -216 c6 -9 12
-34 12 -55 0 -67 -67 -100 -125 -62 -34 22 -35 87 -2 122 19 20 28 23 62 18
22 -4 46 -14 53 -23z"/>
<path d="M2030 3684 c-153 -28 -271 -89 -384 -198 -88 -85 -138 -165 -187
-302 -30 -82 -37 -260 -15 -364 53 -250 253 -462 506 -536 51 -15 95 -19 205
-18 124 1 148 4 214 27 112 41 195 91 275 170 79 78 94 99 142 197 53 109 66
158 71 278 5 95 2 125 -17 200 -70 271 -251 461 -499 524 -73 18 -259 32 -311
22z m163 -535 c112 -31 169 -163 118 -275 -28 -62 -79 -89 -167 -89 -62 0 -76
4 -113 29 -55 39 -71 71 -72 151 -1 55 3 72 25 105 25 38 63 65 116 81 36 10
50 10 93 -2z"/>
<path d="M2070 3098 c-59 -31 -82 -75 -77 -151 4 -68 34 -107 98 -126 111 -33
219 48 206 156 -8 76 -77 143 -146 143 -20 0 -57 -10 -81 -22z m111 -55 c54
-32 56 -110 5 -153 -22 -17 -94 -7 -111 17 -33 45 -26 99 19 135 27 22 50 22
87 1z"/>
<path d="M14028 3470 c-66 -11 -198 -54 -241 -80 -16 -10 -64 -52 -106 -94
-85 -83 -140 -176 -160 -274 -16 -75 -13 -265 4 -340 24 -102 79 -199 156
-274 103 -102 211 -148 409 -174 185 -25 374 3 523 78 107 53 176 110 224 183
83 127 98 181 97 345 -1 213 -39 325 -146 436 -75 79 -143 121 -263 165 -87
32 -95 33 -265 35 -96 1 -201 -1 -232 -6z m284 -261 c40 -6 95 -21 121 -32 62
-27 137 -99 166 -160 21 -43 23 -58 19 -170 -3 -112 -6 -127 -33 -182 -36 -72
-94 -115 -193 -144 -112 -34 -184 -36 -292 -11 -150 35 -196 63 -237 144 -44
86 -51 283 -15 376 37 93 124 152 261 175 100 17 118 17 203 4z"/>
<path d="M12277 3448 c-10 -6 -46 -128 -63 -215 l-7 -33 389 0 c446 -1 474 -5
506 -70 35 -68 17 -166 -37 -208 -27 -21 -36 -22 -296 -22 -208 0 -269 3 -270
13 0 6 0 49 1 94 1 46 -1 87 -4 91 -3 5 -70 -7 -148 -27 l-143 -36 0 -385 0
-385 145 0 145 0 3 177 c2 128 6 177 15 180 6 2 91 1 187 -2 l175 -5 83 -120
c45 -66 97 -141 115 -167 17 -26 42 -52 55 -57 13 -6 92 -11 182 -11 169 0
179 3 141 44 -30 32 -261 340 -261 348 0 4 31 23 70 44 60 31 75 45 110 100
76 121 90 248 41 383 -39 107 -81 165 -152 211 -95 61 -117 64 -567 64 -222 1
-409 -2 -415 -6z"/>
<path d="M10860 3378 c-12 -40 -28 -93 -36 -117 -7 -24 -11 -47 -8 -52 3 -5
191 -9 417 -9 246 0 426 -4 447 -10 63 -18 83 -41 88 -103 6 -78 -4 -121 -37
-156 l-29 -31 -299 2 -298 3 0 97 c-1 53 -3 100 -7 103 -3 3 -41 -6 -84 -20
-44 -14 -99 -29 -124 -32 -87 -11 -80 25 -80 -408 l0 -385 145 0 c143 0 145 0
146 23 1 12 2 92 3 177 l1 155 300 6 c354 6 409 15 519 86 87 56 87 56 127
134 33 62 34 67 34 184 0 133 -12 178 -71 271 -34 53 -135 124 -205 144 -20 6
-222 10 -480 10 l-446 0 -23 -72z"/>
<path d="M15386 3810 c-15 -5 -36 -15 -45 -23 -9 -8 -23 -16 -31 -19 -9 -3
-29 -25 -45 -49 -26 -36 -31 -53 -34 -120 -3 -69 0 -83 23 -126 38 -68 97
-104 184 -111 75 -5 117 8 170 53 51 43 76 99 76 175 0 78 -15 110 -77 167
-62 57 -142 76 -221 53z m136 -71 c48 -19 61 -97 22 -140 -13 -15 -12 -22 15
-65 17 -26 31 -59 31 -72 0 -21 -4 -23 -37 -20 -31 2 -40 9 -52 33 -19 42 -51
75 -72 75 -15 0 -19 -10 -21 -52 -3 -53 -3 -53 -39 -56 -45 -4 -49 6 -49 144
0 147 4 162 49 167 47 6 119 -1 153 -14z"/>
<path d="M15410 3656 c0 -42 10 -49 44 -36 44 16 28 70 -21 70 -20 0 -23 -5
-23 -34z"/>
<path d="M7945 3180 c-93 -20 -185 -82 -220 -149 -24 -47 -38 -149 -32 -237 4
-69 11 -98 37 -150 59 -121 157 -164 371 -164 113 0 137 3 196 25 94 36 130
67 167 144 30 63 31 71 30 186 -1 183 -39 256 -162 317 -65 32 -70 33 -207 35
-77 1 -158 -2 -180 -7z"/>
<path d="M4850 1526 c-235 -84 -381 -268 -397 -501 -7 -105 14 -201 68 -309
48 -97 48 -112 -1 -213 l-29 -63 23 0 c13 0 48 11 77 24 94 41 109 41 196 2
98 -44 148 -55 243 -56 150 0 272 52 385 165 178 177 225 439 120 660 -61 127
-165 221 -310 281 -62 25 -84 29 -190 31 -104 2 -129 -1 -185 -21z m339 -152
c56 -22 90 -44 138 -89 34 -34 63 -69 63 -78 0 -10 -11 -23 -25 -29 -14 -6
-35 -27 -46 -45 -19 -30 -21 -43 -14 -119 6 -80 6 -84 -14 -84 -15 0 -19 -4
-14 -17 5 -13 2 -15 -15 -11 -38 10 -24 -9 18 -26 22 -9 58 -27 80 -41 44 -28
49 -48 25 -95 -43 -82 -156 -111 -280 -71 -127 41 -181 75 -301 188 -78 72
-125 160 -129 238 -1 17 -5 41 -9 55 -5 19 -5 21 3 10 9 -12 11 -11 11 7 0 33
47 113 89 151 102 95 267 117 420 56z m-568 -231 c-12 -20 -14 -14 -5 12 4 9
9 14 11 11 3 -2 0 -13 -6 -23z m18 -135 c1 -61 -8 -72 -33 -37 -15 22 -12 77
7 114 10 19 10 19 18 0 4 -11 8 -46 8 -77z m801 -168 c0 -5 -2 -10 -4 -10 -3
0 -8 5 -11 10 -3 6 -1 10 4 10 6 0 11 -4 11 -10z"/>
<path d="M4892 1048 c-17 -17 -15 -43 3 -58 20 -17 26 -10 29 34 3 37 -9 47
-32 24z"/>
<path d="M4990 896 c0 -13 20 -26 41 -26 14 0 1 18 -22 30 -15 8 -19 7 -19 -4z"/>
<path d="M5088 900 c-26 -16 -17 -63 15 -74 31 -11 37 -7 40 24 1 12 11 27 22
33 19 10 19 11 -5 18 -36 10 -53 10 -72 -1z"/>
<path d="M6550 1333 c-25 -7 -54 -55 -54 -88 0 -17 10 -46 23 -63 20 -28 28
-32 71 -32 68 0 110 35 110 92 0 73 -69 115 -150 91z"/>
<path d="M6538 1025 c-55 -31 -74 -108 -44 -177 20 -47 41 -58 110 -58 51 0
57 2 85 37 48 58 40 151 -15 188 -36 23 -104 28 -136 10z"/>
<path d="M7157 1333 c-24 -6 -47 -54 -47 -97 0 -52 40 -86 103 -86 63 0 97 31
97 87 0 36 -20 78 -44 95 -12 8 -80 9 -109 1z"/>
<path d="M7154 1024 c-81 -42 -84 -174 -4 -223 45 -27 125 -14 157 25 25 31
31 101 14 147 -20 52 -111 80 -167 51z"/>
<path d="M8354 1323 c-57 -28 -81 -99 -63 -183 14 -68 51 -94 120 -88 86 9
123 71 100 172 -13 56 -37 88 -84 105 -35 13 -35 13 -73 -6z"/>
<path d="M9187 1306 c-26 -24 -47 -80 -47 -126 0 -29 35 -99 59 -117 23 -18
102 -16 129 3 66 46 69 169 5 236 -36 38 -107 40 -146 4z"/>
<path d="M12509 1329 c-54 -20 -84 -141 -77 -311 9 -188 63 -262 162 -217 51
24 61 66 61 269 0 176 -1 186 -23 217 -29 41 -79 58 -123 42z"/>
<path d="M13134 1330 c-60 -24 -90 -140 -81 -309 10 -175 45 -240 124 -228 45
8 80 40 93 86 18 65 23 222 10 301 -16 95 -33 128 -75 146 -39 16 -42 16 -71
4z"/>
<path d="M13752 1333 c-62 -12 -101 -152 -88 -321 9 -120 23 -168 58 -197 66
-56 144 -9 166 101 24 116 10 317 -26 372 -15 22 -63 53 -79 51 -4 -1 -18 -4
-31 -6z"/>
</g>
</svg>